<svg width="202" height="115" viewBox="0 0 202 115" fill="none" xmlns="http://www.w3.org/2000/svg">
<path d="M2.51741 5.03483C3.90774 5.03483 5.03483 3.90774 5.03483 2.51741C5.03483 1.12708 3.90774 0 2.51741 0C1.12708 0 0 1.12708 0 2.51741C0 3.90774 1.12708 5.03483 2.51741 5.03483Z" fill="#B1B1BD"/>
<path d="M24.335 5.03483C25.7254 5.03483 26.8525 3.90774 26.8525 2.51741C26.8525 1.12708 25.7254 0 24.335 0C22.9447 0 21.8176 1.12708 21.8176 2.51741C21.8176 3.90774 22.9447 5.03483 24.335 5.03483Z" fill="#B1B1BD"/>
<path d="M46.1525 5.03483C47.5429 5.03483 48.67 3.90774 48.67 2.51741C48.67 1.12708 47.5429 0 46.1525 0C44.7622 0 43.6351 1.12708 43.6351 2.51741C43.6351 3.90774 44.7622 5.03483 46.1525 5.03483Z" fill="#B1B1BD"/>
<path d="M67.9702 5.03483C69.3605 5.03483 70.4876 3.90774 70.4876 2.51741C70.4876 1.12708 69.3605 0 67.9702 0C66.5798 0 65.4528 1.12708 65.4528 2.51741C65.4528 3.90774 66.5798 5.03483 67.9702 5.03483Z" fill="#B1B1BD"/>
<path d="M89.7877 5.03483C91.178 5.03483 92.3051 3.90774 92.3051 2.51741C92.3051 1.12708 91.178 0 89.7877 0C88.3973 0 87.2703 1.12708 87.2703 2.51741C87.2703 3.90774 88.3973 5.03483 89.7877 5.03483Z" fill="#B1B1BD"/>
<path d="M111.605 5.03483C112.996 5.03483 114.123 3.90774 114.123 2.51741C114.123 1.12708 112.996 0 111.605 0C110.215 0 109.088 1.12708 109.088 2.51741C109.088 3.90774 110.215 5.03483 111.605 5.03483Z" fill="#B1B1BD"/>
<path d="M133.423 5.03483C134.813 5.03483 135.94 3.90774 135.94 2.51741C135.94 1.12708 134.813 0 133.423 0C132.033 0 130.906 1.12708 130.906 2.51741C130.906 3.90774 132.033 5.03483 133.423 5.03483Z" fill="#B1B1BD"/>
<path d="M155.24 5.03483C156.631 5.03483 157.758 3.90774 157.758 2.51741C157.758 1.12708 156.631 0 155.24 0C153.85 0 152.723 1.12708 152.723 2.51741C152.723 3.90774 153.85 5.03483 155.24 5.03483Z" fill="#B1B1BD"/>
<path d="M177.058 5.03483C178.448 5.03483 179.575 3.90774 179.575 2.51741C179.575 1.12708 178.448 0 177.058 0C175.668 0 174.541 1.12708 174.541 2.51741C174.541 3.90774 175.668 5.03483 177.058 5.03483Z" fill="#B1B1BD"/>
<path d="M198.876 5.03483C200.266 5.03483 201.393 3.90774 201.393 2.51741C201.393 1.12708 200.266 0 198.876 0C197.485 0 196.358 1.12708 196.358 2.51741C196.358 3.90774 197.485 5.03483 198.876 5.03483Z" fill="#B1B1BD"/>
<path d="M2.51741 26.8525C3.90774 26.8525 5.03483 25.7254 5.03483 24.335C5.03483 22.9447 3.90774 21.8176 2.51741 21.8176C1.12708 21.8176 0 22.9447 0 24.335C0 25.7254 1.12708 26.8525 2.51741 26.8525Z" fill="#B1B1BD"/>
<path d="M24.335 26.8525C25.7254 26.8525 26.8525 25.7254 26.8525 24.335C26.8525 22.9447 25.7254 21.8176 24.335 21.8176C22.9447 21.8176 21.8176 22.9447 21.8176 24.335C21.8176 25.7254 22.9447 26.8525 24.335 26.8525Z" fill="#B1B1BD"/>
<path d="M46.1525 26.8525C47.5429 26.8525 48.67 25.7254 48.67 24.335C48.67 22.9447 47.5429 21.8176 46.1525 21.8176C44.7622 21.8176 43.6351 22.9447 43.6351 24.335C43.6351 25.7254 44.7622 26.8525 46.1525 26.8525Z" fill="#B1B1BD"/>
<path d="M67.9702 26.8525C69.3605 26.8525 70.4876 25.7254 70.4876 24.335C70.4876 22.9447 69.3605 21.8176 67.9702 21.8176C66.5798 21.8176 65.4528 22.9447 65.4528 24.335C65.4528 25.7254 66.5798 26.8525 67.9702 26.8525Z" fill="#B1B1BD"/>
<path d="M89.7877 26.8525C91.178 26.8525 92.3051 25.7254 92.3051 24.335C92.3051 22.9447 91.178 21.8176 89.7877 21.8176C88.3973 21.8176 87.2703 22.9447 87.2703 24.335C87.2703 25.7254 88.3973 26.8525 89.7877 26.8525Z" fill="#B1B1BD"/>
<path d="M111.605 26.8525C112.996 26.8525 114.123 25.7254 114.123 24.335C114.123 22.9447 112.996 21.8176 111.605 21.8176C110.215 21.8176 109.088 22.9447 109.088 24.335C109.088 25.7254 110.215 26.8525 111.605 26.8525Z" fill="#B1B1BD"/>
<path d="M133.423 26.8525C134.813 26.8525 135.94 25.7254 135.94 24.335C135.94 22.9447 134.813 21.8176 133.423 21.8176C132.033 21.8176 130.906 22.9447 130.906 24.335C130.906 25.7254 132.033 26.8525 133.423 26.8525Z" fill="#B1B1BD"/>
<path d="M155.24 26.8525C156.631 26.8525 157.758 25.7254 157.758 24.335C157.758 22.9447 156.631 21.8176 155.24 21.8176C153.85 21.8176 152.723 22.9447 152.723 24.335C152.723 25.7254 153.85 26.8525 155.24 26.8525Z" fill="#B1B1BD"/>
<path d="M177.058 26.8525C178.448 26.8525 179.575 25.7254 179.575 24.335C179.575 22.9447 178.448 21.8176 177.058 21.8176C175.668 21.8176 174.541 22.9447 174.541 24.335C174.541 25.7254 175.668 26.8525 177.058 26.8525Z" fill="#B1B1BD"/>
<path d="M198.876 26.8525C200.266 26.8525 201.393 25.7254 201.393 24.335C201.393 22.9447 200.266 21.8176 198.876 21.8176C197.485 21.8176 196.358 22.9447 196.358 24.335C196.358 25.7254 197.485 26.8525 198.876 26.8525Z" fill="#B1B1BD"/>
<path d="M2.51741 48.6701C3.90774 48.6701 5.03483 47.543 5.03483 46.1527C5.03483 44.7623 3.90774 43.6353 2.51741 43.6353C1.12708 43.6353 0 44.7623 0 46.1527C0 47.543 1.12708 48.6701 2.51741 48.6701Z" fill="#B1B1BD"/>
<path d="M24.335 48.6701C25.7254 48.6701 26.8525 47.543 26.8525 46.1527C26.8525 44.7623 25.7254 43.6353 24.335 43.6353C22.9447 43.6353 21.8176 44.7623 21.8176 46.1527C21.8176 47.543 22.9447 48.6701 24.335 48.6701Z" fill="#B1B1BD"/>
<path d="M46.1525 48.6701C47.5429 48.6701 48.67 47.543 48.67 46.1527C48.67 44.7623 47.5429 43.6353 46.1525 43.6353C44.7622 43.6353 43.6351 44.7623 43.6351 46.1527C43.6351 47.543 44.7622 48.6701 46.1525 48.6701Z" fill="#B1B1BD"/>
<path d="M67.9702 48.6701C69.3605 48.6701 70.4876 47.543 70.4876 46.1527C70.4876 44.7623 69.3605 43.6353 67.9702 43.6353C66.5798 43.6353 65.4528 44.7623 65.4528 46.1527C65.4528 47.543 66.5798 48.6701 67.9702 48.6701Z" fill="#B1B1BD"/>
<path d="M89.7877 48.6701C91.178 48.6701 92.3051 47.543 92.3051 46.1527C92.3051 44.7623 91.178 43.6353 89.7877 43.6353C88.3973 43.6353 87.2703 44.7623 87.2703 46.1527C87.2703 47.543 88.3973 48.6701 89.7877 48.6701Z" fill="#B1B1BD"/>
<path d="M111.605 48.6701C112.996 48.6701 114.123 47.543 114.123 46.1527C114.123 44.7623 112.996 43.6353 111.605 43.6353C110.215 43.6353 109.088 44.7623 109.088 46.1527C109.088 47.543 110.215 48.6701 111.605 48.6701Z" fill="#B1B1BD"/>
<path d="M133.423 48.6701C134.813 48.6701 135.94 47.543 135.94 46.1527C135.94 44.7623 134.813 43.6353 133.423 43.6353C132.033 43.6353 130.906 44.7623 130.906 46.1527C130.906 47.543 132.033 48.6701 133.423 48.6701Z" fill="#B1B1BD"/>
<path d="M155.24 48.6701C156.631 48.6701 157.758 47.543 157.758 46.1527C157.758 44.7623 156.631 43.6353 155.24 43.6353C153.85 43.6353 152.723 44.7623 152.723 46.1527C152.723 47.543 153.85 48.6701 155.24 48.6701Z" fill="#B1B1BD"/>
<path d="M177.058 48.6701C178.448 48.6701 179.575 47.543 179.575 46.1527C179.575 44.7623 178.448 43.6353 177.058 43.6353C175.668 43.6353 174.541 44.7623 174.541 46.1527C174.541 47.543 175.668 48.6701 177.058 48.6701Z" fill="#B1B1BD"/>
<path d="M198.876 48.6701C200.266 48.6701 201.393 47.543 201.393 46.1527C201.393 44.7623 200.266 43.6353 198.876 43.6353C197.485 43.6353 196.358 44.7623 196.358 46.1527C196.358 47.543 197.485 48.6701 198.876 48.6701Z" fill="#B1B1BD"/>
<path d="M2.51741 70.4875C3.90774 70.4875 5.03483 69.3604 5.03483 67.97C5.03483 66.5797 3.90774 65.4526 2.51741 65.4526C1.12708 65.4526 0 66.5797 0 67.97C0 69.3604 1.12708 70.4875 2.51741 70.4875Z" fill="#B1B1BD"/>
<path d="M24.335 70.4875C25.7254 70.4875 26.8525 69.3604 26.8525 67.97C26.8525 66.5797 25.7254 65.4526 24.335 65.4526C22.9447 65.4526 21.8176 66.5797 21.8176 67.97C21.8176 69.3604 22.9447 70.4875 24.335 70.4875Z" fill="#B1B1BD"/>
<path d="M46.1525 70.4875C47.5429 70.4875 48.67 69.3604 48.67 67.97C48.67 66.5797 47.5429 65.4526 46.1525 65.4526C44.7622 65.4526 43.6351 66.5797 43.6351 67.97C43.6351 69.3604 44.7622 70.4875 46.1525 70.4875Z" fill="#B1B1BD"/>
<path d="M67.9702 70.4875C69.3605 70.4875 70.4876 69.3604 70.4876 67.97C70.4876 66.5797 69.3605 65.4526 67.9702 65.4526C66.5798 65.4526 65.4528 66.5797 65.4528 67.97C65.4528 69.3604 66.5798 70.4875 67.9702 70.4875Z" fill="#B1B1BD"/>
<path d="M89.7877 70.4875C91.178 70.4875 92.3051 69.3604 92.3051 67.97C92.3051 66.5797 91.178 65.4526 89.7877 65.4526C88.3973 65.4526 87.2703 66.5797 87.2703 67.97C87.2703 69.3604 88.3973 70.4875 89.7877 70.4875Z" fill="#B1B1BD"/>
<path d="M111.605 70.4875C112.996 70.4875 114.123 69.3604 114.123 67.97C114.123 66.5797 112.996 65.4526 111.605 65.4526C110.215 65.4526 109.088 66.5797 109.088 67.97C109.088 69.3604 110.215 70.4875 111.605 70.4875Z" fill="#B1B1BD"/>
<path d="M133.423 70.4875C134.813 70.4875 135.94 69.3604 135.94 67.97C135.94 66.5797 134.813 65.4526 133.423 65.4526C132.033 65.4526 130.906 66.5797 130.906 67.97C130.906 69.3604 132.033 70.4875 133.423 70.4875Z" fill="#B1B1BD"/>
<path d="M155.24 70.4875C156.631 70.4875 157.758 69.3604 157.758 67.97C157.758 66.5797 156.631 65.4526 155.24 65.4526C153.85 65.4526 152.723 66.5797 152.723 67.97C152.723 69.3604 153.85 70.4875 155.24 70.4875Z" fill="#B1B1BD"/>
<path d="M177.058 70.4875C178.448 70.4875 179.575 69.3604 179.575 67.97C179.575 66.5797 178.448 65.4526 177.058 65.4526C175.668 65.4526 174.541 66.5797 174.541 67.97C174.541 69.3604 175.668 70.4875 177.058 70.4875Z" fill="#B1B1BD"/>
<path d="M198.876 70.4875C200.266 70.4875 201.393 69.3604 201.393 67.97C201.393 66.5797 200.266 65.4526 198.876 65.4526C197.485 65.4526 196.358 66.5797 196.358 67.97C196.358 69.3604 197.485 70.4875 198.876 70.4875Z" fill="#B1B1BD"/>
<path d="M2.51741 92.3051C3.90774 92.3051 5.03483 91.178 5.03483 89.7877C5.03483 88.3973 3.90774 87.2703 2.51741 87.2703C1.12708 87.2703 0 88.3973 0 89.7877C0 91.178 1.12708 92.3051 2.51741 92.3051Z" fill="#B1B1BD"/>
<path d="M24.335 92.3051C25.7254 92.3051 26.8525 91.178 26.8525 89.7877C26.8525 88.3973 25.7254 87.2703 24.335 87.2703C22.9447 87.2703 21.8176 88.3973 21.8176 89.7877C21.8176 91.178 22.9447 92.3051 24.335 92.3051Z" fill="#B1B1BD"/>
<path d="M46.1525 92.3051C47.5429 92.3051 48.67 91.178 48.67 89.7877C48.67 88.3973 47.5429 87.2703 46.1525 87.2703C44.7622 87.2703 43.6351 88.3973 43.6351 89.7877C43.6351 91.178 44.7622 92.3051 46.1525 92.3051Z" fill="#B1B1BD"/>
<path d="M67.9702 92.3051C69.3605 92.3051 70.4876 91.178 70.4876 89.7877C70.4876 88.3973 69.3605 87.2703 67.9702 87.2703C66.5798 87.2703 65.4528 88.3973 65.4528 89.7877C65.4528 91.178 66.5798 92.3051 67.9702 92.3051Z" fill="#B1B1BD"/>
<path d="M89.7877 92.3051C91.178 92.3051 92.3051 91.178 92.3051 89.7877C92.3051 88.3973 91.178 87.2703 89.7877 87.2703C88.3973 87.2703 87.2703 88.3973 87.2703 89.7877C87.2703 91.178 88.3973 92.3051 89.7877 92.3051Z" fill="#B1B1BD"/>
<path d="M111.605 92.3051C112.996 92.3051 114.123 91.178 114.123 89.7877C114.123 88.3973 112.996 87.2703 111.605 87.2703C110.215 87.2703 109.088 88.3973 109.088 89.7877C109.088 91.178 110.215 92.3051 111.605 92.3051Z" fill="#B1B1BD"/>
<path d="M133.423 92.3051C134.813 92.3051 135.94 91.178 135.94 89.7877C135.94 88.3973 134.813 87.2703 133.423 87.2703C132.033 87.2703 130.906 88.3973 130.906 89.7877C130.906 91.178 132.033 92.3051 133.423 92.3051Z" fill="#B1B1BD"/>
<path d="M155.24 92.3051C156.631 92.3051 157.758 91.178 157.758 89.7877C157.758 88.3973 156.631 87.2703 155.24 87.2703C153.85 87.2703 152.723 88.3973 152.723 89.7877C152.723 91.178 153.85 92.3051 155.24 92.3051Z" fill="#B1B1BD"/>
<path d="M177.058 92.3051C178.448 92.3051 179.575 91.178 179.575 89.7877C179.575 88.3973 178.448 87.2703 177.058 87.2703C175.668 87.2703 174.541 88.3973 174.541 89.7877C174.541 91.178 175.668 92.3051 177.058 92.3051Z" fill="#B1B1BD"/>
<path d="M198.876 92.3051C200.266 92.3051 201.393 91.178 201.393 89.7877C201.393 88.3973 200.266 87.2703 198.876 87.2703C197.485 87.2703 196.358 88.3973 196.358 89.7877C196.358 91.178 197.485 92.3051 198.876 92.3051Z" fill="#B1B1BD"/>
<path d="M2.51741 114.123C3.90774 114.123 5.03483 112.996 5.03483 111.605C5.03483 110.215 3.90774 109.088 2.51741 109.088C1.12708 109.088 0 110.215 0 111.605C0 112.996 1.12708 114.123 2.51741 114.123Z" fill="#B1B1BD"/>
<path d="M24.335 114.123C25.7254 114.123 26.8525 112.996 26.8525 111.605C26.8525 110.215 25.7254 109.088 24.335 109.088C22.9447 109.088 21.8176 110.215 21.8176 111.605C21.8176 112.996 22.9447 114.123 24.335 114.123Z" fill="#B1B1BD"/>
<path d="M46.1525 114.123C47.5429 114.123 48.67 112.996 48.67 111.605C48.67 110.215 47.5429 109.088 46.1525 109.088C44.7622 109.088 43.6351 110.215 43.6351 111.605C43.6351 112.996 44.7622 114.123 46.1525 114.123Z" fill="#B1B1BD"/>
<path d="M67.9702 114.123C69.3605 114.123 70.4876 112.996 70.4876 111.605C70.4876 110.215 69.3605 109.088 67.9702 109.088C66.5798 109.088 65.4528 110.215 65.4528 111.605C65.4528 112.996 66.5798 114.123 67.9702 114.123Z" fill="#B1B1BD"/>
<path d="M89.7877 114.123C91.178 114.123 92.3051 112.996 92.3051 111.605C92.3051 110.215 91.178 109.088 89.7877 109.088C88.3973 109.088 87.2703 110.215 87.2703 111.605C87.2703 112.996 88.3973 114.123 89.7877 114.123Z" fill="#B1B1BD"/>
<path d="M111.605 114.123C112.996 114.123 114.123 112.996 114.123 111.605C114.123 110.215 112.996 109.088 111.605 109.088C110.215 109.088 109.088 110.215 109.088 111.605C109.088 112.996 110.215 114.123 111.605 114.123Z" fill="#B1B1BD"/>
<path d="M133.423 114.123C134.813 114.123 135.94 112.996 135.94 111.605C135.94 110.215 134.813 109.088 133.423 109.088C132.033 109.088 130.906 110.215 130.906 111.605C130.906 112.996 132.033 114.123 133.423 114.123Z" fill="#B1B1BD"/>
<path d="M155.24 114.123C156.631 114.123 157.758 112.996 157.758 111.605C157.758 110.215 156.631 109.088 155.24 109.088C153.85 109.088 152.723 110.215 152.723 111.605C152.723 112.996 153.85 114.123 155.24 114.123Z" fill="#B1B1BD"/>
<path d="M177.058 114.123C178.448 114.123 179.575 112.996 179.575 111.605C179.575 110.215 178.448 109.088 177.058 109.088C175.668 109.088 174.541 110.215 174.541 111.605C174.541 112.996 175.668 114.123 177.058 114.123Z" fill="#B1B1BD"/>
<path d="M198.876 114.123C200.266 114.123 201.393 112.996 201.393 111.605C201.393 110.215 200.266 109.088 198.876 109.088C197.485 109.088 196.358 110.215 196.358 111.605C196.358 112.996 197.485 114.123 198.876 114.123Z" fill="#B1B1BD"/>
</svg>
