<svg width="159" height="86" viewBox="0 0 159 86" fill="none" xmlns="http://www.w3.org/2000/svg">
<path d="M135.189 44.0804C133.878 86 92.0964 86 92.0964 86H52.3405V0H90.2373C122.104 0.816304 131.233 20.1675 134.164 32.5801C134.212 32.7722 134.236 32.9403 134.26 33.1323L134.856 37.0698C134.856 37.1178 134.832 37.1658 134.784 37.1898C134.76 37.1898 134.736 37.1898 134.713 37.1898C126.919 32.9883 113.977 37.598 113.977 37.598V37.0698C112.689 30.1072 107.851 19.4712 90.2373 19.2552H72.9335V66.7688H90.2135C90.2135 66.7688 107.613 67.6572 112.88 51.9073C113.023 51.4992 112.928 51.043 112.642 50.7309C111.688 49.6025 109.019 47.2256 103.561 47.2256C103.513 47.2256 103.465 47.2016 103.465 47.1535C103.465 47.1295 103.489 47.0815 103.513 47.0815C104.943 46.1932 112.165 41.9196 122.962 39.9989C122.962 39.9989 131.114 38.2702 134.76 43.1441C134.927 43.3601 135.046 43.5762 135.118 43.8403C135.165 43.8883 135.165 43.9844 135.189 44.0804Z" fill="black"/>
<path d="M154.162 42.7599C155.758 42.0156 157.522 41.1753 158.642 40.359C158.762 40.263 158.881 40.1429 158.928 39.9989C159.048 39.7588 159.048 39.3987 158.38 39.2546C158.261 39.2306 158.142 39.2306 158.047 39.2546C156.903 39.5187 155.735 39.5907 154.591 39.5187C153.899 39.4467 153.232 39.1586 152.708 38.7024C151.444 37.622 148.417 35.4852 145.533 36.9978C145.533 36.9978 141.553 39.2306 134.808 38.9905C134.76 38.9905 134.736 39.0385 134.736 39.0625C134.736 39.0865 134.736 39.1105 134.76 39.1346C135.618 39.8068 138.955 42.4958 138.955 44.5126C138.955 44.5846 138.955 44.6806 138.931 44.7526C138.884 45.1608 138.812 45.5449 138.717 45.9291C138.693 46.0251 138.741 46.0972 138.836 46.1212C138.86 46.1212 138.86 46.1212 138.884 46.1212C139.313 46.0972 140.457 45.809 142.936 43.9123C143.031 43.8403 143.15 43.8403 143.245 43.8883C144.27 44.5606 145.438 44.9687 146.678 45.0648C147.154 45.0408 147.631 44.9927 148.108 44.9207C148.632 44.8487 149.156 44.6806 149.657 44.4645C150.157 44.2485 150.563 43.8643 150.825 43.4081C150.872 43.3121 150.92 43.2401 150.944 43.1441C150.944 43.12 150.968 43.12 150.992 43.12C151.015 43.12 151.015 43.1441 151.015 43.1441C151.015 43.2881 151.015 43.4322 150.992 43.6002C150.968 43.7203 151.063 43.8403 151.182 43.8403C151.206 43.8403 151.254 43.8403 151.278 43.8403C152.255 43.5282 153.232 43.1681 154.162 42.7599ZM20.593 66.7448H65.4019V85.952H0V0H20.593V66.7448Z" fill="black"/>
</svg>
